<svg width="1440" height="1024" viewBox="0 0 1440 1024" fill="none" xmlns="http://www.w3.org/2000/svg">


<style type="text/css">

 @keyframes slide {
    0% {
      transform: translateX(0);
    }
    50% {
      transform: translateX(20%);
    }
  }

  @keyframes moveUpDown {
    0%, 100% {
      transform: translateY(0);
    }
    50% {
      transform: translateY(-20px);
    }
  }

  #mic {
    animation: slide 2s ease-in-out infinite;
  }

  #rightstar {
    animation: moveUpDown 2s ease-in-out infinite;
  }


</style>
















<rect width="1440" height="1024" fill="#1E1E1E"/>
<g id="Desktop - 1">
<rect width="1440" height="1024" fill="white"/>
<g id="mouth">
<g id="Group">
<g id="Group_2">
<path id="Vector" d="M754.451 443.328C744.389 443.328 736.205 451.513 736.205 461.575C736.205 471.635 744.389 479.82 754.451 479.82C764.514 479.82 772.698 471.636 772.698 461.575C772.698 451.513 764.514 443.328 754.451 443.328Z" fill="black"/>
</g>
</g>
<g id="Group_3">
<g id="Group_4">
<path id="Vector_2" d="M635.392 443.328C625.33 443.328 617.146 451.513 617.146 461.575C617.146 471.635 625.33 479.82 635.392 479.82C645.452 479.82 653.638 471.636 653.639 461.575C653.638 451.513 645.453 443.328 635.392 443.328Z" fill="black"/>
</g>
</g>
<g id="Group_5">
<g id="Group_6">
<path id="Vector_3" d="M710.942 520.236H679.039C670.024 520.236 662.716 527.544 662.716 536.559C662.716 554.355 677.194 568.834 694.991 568.834C712.787 568.834 727.264 554.358 727.266 536.559C727.266 527.544 719.956 520.236 710.942 520.236Z" fill="black"/>
</g>
</g>
</g>
<g id="mic">
<g id="mike">
<path id="Vector_4" d="M381.593 540.001C333.89 540.001 295.08 578.812 295.08 626.515C295.08 658.803 312.87 686.996 339.153 701.859V825.294C339.153 848.696 358.192 867.735 381.593 867.735C404.995 867.735 424.034 848.696 424.034 825.294V701.859C450.317 686.996 468.107 658.803 468.107 626.515C468.107 578.812 429.296 540.001 381.593 540.001ZM391.387 825.294C391.387 830.602 386.901 835.088 381.593 835.088C376.286 835.088 371.8 830.602 371.8 825.294V712.459C375.017 712.823 378.279 713.029 381.593 713.029C384.907 713.029 388.17 712.823 391.387 712.459V825.294ZM381.593 680.382C357.579 680.382 337.192 664.584 330.261 642.839H432.924C425.995 664.585 405.607 680.382 381.593 680.382ZM330.262 610.192C337.194 588.447 357.581 572.648 381.595 572.648C405.609 572.648 425.996 588.447 432.928 610.192H330.262Z" fill="black"/>
</g>
</g>
<g id="rightstar">
<g id="Group_7">
<path id="Vector_5" d="M1094.2 184.104C1092.01 177.379 1085.75 172.825 1078.68 172.825H1026.78L1010.75 123.472C1008.56 116.747 1002.29 112.192 995.221 112.192C988.149 112.192 981.882 116.747 979.696 123.472L963.66 172.825H911.766C904.693 172.825 898.427 177.379 896.241 184.104C894.057 190.831 896.451 198.2 902.171 202.356L944.154 232.857L928.118 282.21C925.933 288.935 928.327 296.304 934.048 300.462C936.908 302.54 940.274 303.579 943.643 303.579C947.008 303.579 950.376 302.54 953.238 300.462L995.222 269.96L1037.2 300.462C1042.93 304.618 1050.67 304.618 1056.39 300.462C1062.12 296.304 1064.51 288.935 1062.32 282.21L1046.29 232.857L1088.27 202.356C1093.99 198.198 1096.38 190.831 1094.2 184.104ZM1017.5 213.415C1011.78 217.573 1009.39 224.94 1011.57 231.667L1015.75 244.521L1004.82 236.576C999.093 232.418 991.347 232.42 985.627 236.576L974.693 244.521L978.869 231.667C981.054 224.942 978.66 217.571 972.94 213.415L962.007 205.473H975.521C982.593 205.473 988.86 200.918 991.046 194.193L995.222 181.339L999.397 194.193C1001.58 200.918 1007.85 205.473 1014.92 205.473H1028.44L1017.5 213.415Z" fill="black"/>
</g>
</g>
<g id="buttn">
<g id="Group_8">
<g id="Group_9">
<path id="Vector_6" d="M747.626 808.972H747.412C738.397 808.972 731.089 816.28 731.089 825.296C731.089 834.311 738.397 841.619 747.412 841.619H747.626C756.642 841.619 763.95 834.311 763.95 825.296C763.95 816.28 756.642 808.972 747.626 808.972Z" fill="black"/>
</g>
</g>
<g id="Group_10">
<g id="Group_11">
<path id="Vector_7" d="M861.674 808.971H800.434C791.418 808.971 784.111 816.279 784.111 825.294C784.111 834.31 791.418 841.617 800.434 841.617H861.674C870.69 841.617 877.998 834.31 877.998 825.294C877.998 816.279 870.69 808.971 861.674 808.971Z" fill="black"/>
</g>
</g>
</g>
<g id="leftplus">
<g id="Group_12">
<path id="Vector_8" d="M399.843 231.779H391.689V223.625C391.689 214.609 384.381 207.301 375.365 207.301C366.35 207.301 359.042 214.609 359.042 223.625V231.779H350.886C341.87 231.779 334.562 239.087 334.562 248.103C334.562 257.118 341.87 264.426 350.886 264.426H359.042V272.582C359.042 281.598 366.35 288.906 375.365 288.906C384.381 288.906 391.689 281.598 391.689 272.582V264.426H399.843C408.859 264.426 416.167 257.118 416.167 248.103C416.167 239.087 408.859 231.779 399.843 231.779Z" fill="black"/>
</g>
</g>
<g id="boibody">
<g id="Group_13">
<path id="Vector_9" d="M973.043 802.986C1040.25 802.986 1094.92 748.31 1094.92 681.106C1094.92 613.901 1040.25 559.225 973.043 559.225C906.254 559.225 851.867 613.229 851.192 679.859L783.186 651.523C779.934 650.168 777.686 647.246 777.159 643.843C777.151 643.765 777.143 643.687 777.134 643.609C777.076 643.178 777.036 642.743 777.036 642.3V616.881L819.703 592.415C820 592.245 820.292 592.064 820.579 591.875C841.943 577.767 855.973 552.675 858.107 524.755C858.14 524.342 858.154 523.925 858.154 523.511V515.239H874.363C903.073 515.239 926.429 491.881 926.429 463.174V398.56C926.429 376.019 912.029 356.783 891.948 349.555C885.099 246.768 799.37 165.237 694.956 165.237C590.622 165.237 504.943 246.645 497.979 349.319C477.535 356.351 462.798 375.76 462.798 398.558V463.174C462.798 491.883 486.155 515.241 514.865 515.241H531.69V523.512C531.69 523.927 531.705 524.344 531.737 524.756C533.88 552.791 547.81 577.881 569 591.876C569.293 592.068 569.591 592.251 569.896 592.426L612.808 616.959V642.3C612.808 646.346 610.394 649.967 606.66 651.524L501.604 695.298C474.11 706.756 454.909 736.976 454.909 768.791V879.161H364.426C355.411 879.161 348.103 886.469 348.103 895.484C348.103 904.5 355.411 911.808 364.426 911.808H1025.58C1034.59 911.808 1041.9 904.5 1041.9 895.484C1041.9 886.469 1034.59 879.161 1025.58 879.161H934.937V796.918C947.143 800.947 959.899 802.986 973.043 802.986ZM893.782 398.558V463.174C893.782 473.881 885.07 482.592 874.363 482.592H858.154V379.136H874.363C885.071 379.138 893.782 387.85 893.782 398.558ZM531.688 482.594H514.863C504.155 482.594 495.443 473.881 495.443 463.174V398.558C495.443 387.85 504.155 379.14 514.863 379.14H531.688V482.594ZM534.857 346.491H530.962C539.183 263.181 609.591 197.882 694.956 197.882C780.322 197.882 850.726 263.181 858.951 346.491H855.563C841.831 270.446 775.153 212.578 695.209 212.578C615.266 212.578 548.59 270.446 534.857 346.491ZM819.243 335.651C795.656 330.018 774.775 315.655 761.018 294.924C757.637 289.831 751.697 287.057 745.615 287.726C739.539 288.401 734.348 292.415 732.167 298.129C715.536 341.693 673.039 370.963 626.421 370.963C605.097 370.963 584.633 365.093 566.732 353.929C577.057 292.329 630.721 245.226 695.208 245.226C753.15 245.224 802.357 283.251 819.243 335.651ZM586.593 564.364C574.116 555.92 565.838 540.475 564.336 522.855V389.746C583.616 398.858 604.672 403.607 626.424 403.607C656.547 403.607 685.461 394.491 710.042 377.247C726.673 365.579 740.519 350.794 750.92 333.732C771.045 353.566 797.157 366.287 825.368 369.877C825.448 371.751 825.512 373.63 825.512 375.524V522.852C824.029 540.114 815.446 555.933 802.986 564.37L715.345 614.621C715.047 614.793 714.756 614.973 714.469 615.162C702.234 623.245 687.622 623.245 675.383 615.162C675.091 614.97 674.794 614.786 674.488 614.612L586.593 564.364ZM744.389 635.6V665.428C744.389 692.827 722.297 715.12 694.897 715.12C667.497 715.12 645.205 692.829 645.205 665.428L645.452 635.621L657.855 642.712C669.313 650.154 682.117 653.874 694.922 653.874C707.731 653.874 720.537 650.151 731.997 642.706L744.389 635.6ZM487.554 879.161V768.791C487.554 750.393 498.991 731.752 514.16 725.432L614.6 683.582C622.892 720.276 655.735 747.769 694.898 747.769C734.069 747.769 766.914 720.268 775.2 683.567L875.682 725.434C890.849 731.754 902.288 750.393 902.288 768.793V879.161H487.554ZM934.599 761.623C931.976 732.52 913.659 705.887 888.24 695.296L884.676 693.812C884.659 693.651 884.656 693.492 884.635 693.331C884.087 689.307 883.807 685.193 883.807 681.106C883.807 631.903 923.837 591.872 973.041 591.872C1022.24 591.872 1062.28 631.901 1062.28 681.106C1062.28 730.31 1022.25 770.34 973.041 770.34C959.544 770.341 946.629 767.385 934.599 761.623Z" fill="black"/>
</g>
</g>
</g>
</svg>
