<svg width="1440" height="1024" viewBox="0 0 1440 1024" fill="none" xmlns="http://www.w3.org/2000/svg">



<style type="text/css">



  @keyframes moveUpDown {
    0%, 100% {
      transform: translateY(0);
    }
    50% {
      transform: translateY(-20px);
    }
  }


  #femaleguitar {
    animation: moveUpDown 2s ease-in-out infinite;
  }


</style>

















<rect width="1440" height="1024" fill="#1E1E1E"/>
<g id="Desktop - 1">
<rect width="1440" height="1024" fill="white"/>
<g id="femaleguitar">
<g id="leg">
<path id="Vector" d="M821.217 694.4L753.634 507.349C743.564 515.883 732.214 522.624 721.293 529.196C717.623 531.414 713.783 533.718 710.114 535.936C695.437 545.067 682.381 558.891 670.092 578.262C655.158 601.729 637.58 620.672 617.868 634.582C597.217 649.089 573.324 656.769 548.662 656.769C536.63 656.769 524.513 654.976 512.652 651.392L498.145 694.4C495.67 701.056 500.62 708.224 507.788 708.224H569.741V871.893C569.741 894.08 587.746 912 609.847 912C632.034 912 649.954 893.995 649.954 871.893V708.224H669.324V871.893C669.324 894.08 687.33 912 709.43 912C731.617 912 749.537 893.995 749.537 871.893V708.224H811.49C818.743 708.224 823.692 701.056 821.217 694.4Z" fill="black"/>
</g>
<g id="bodyup">
<path id="uparm" d="M508.556 212.181C492.428 208.512 476.47 218.581 472.801 234.709L447.201 347.435C445.068 356.907 447.628 366.805 454.113 374.059C459.83 380.373 467.852 383.957 476.3 383.957C477.494 383.957 478.689 383.872 479.884 383.787L556.257 374.656C562.743 372.011 568.63 368.939 574.092 365.611C577.505 363.477 580.748 361.173 583.734 358.699C587.062 355.968 590.476 353.067 593.804 350.336C604.044 341.717 614.541 332.843 626.572 325.931C639.969 318.251 653.366 314.24 667.361 313.728C670.007 313.643 672.652 313.643 675.212 313.813C684.854 314.325 694.497 316.203 703.798 319.275C708.577 320.896 713.27 322.773 717.878 324.907C718.134 324.992 718.305 325.163 718.561 325.248C702.774 311.509 682.123 303.232 659.596 303.232C645.26 303.232 514.785 319.275 514.785 319.275L530.998 247.851C534.668 231.808 524.598 215.765 508.556 212.181Z" fill="black"/>
<path id="guitarr" d="M951.948 277.973C953.996 276.523 955.021 273.877 954.422 271.403L939.318 209.451C938.721 207.061 936.588 205.525 934.369 205.525C933.345 205.525 932.321 205.867 931.382 206.464L864.481 254.165C855.35 260.651 850.23 270.805 849.804 281.216L752.012 350.848L742.454 357.675L740.407 359.125C723.681 342.656 701.154 331.392 677.687 329.344C675.297 329.173 672.908 329.003 670.604 329.003C638.518 329.003 617.783 350.763 594.23 369.963C593.974 370.133 593.804 370.304 593.548 370.475C586.381 376.277 578.529 381.056 570.167 385.067C558.733 390.528 546.614 394.539 534.327 397.44C511.287 402.901 488.674 412.032 469.474 425.941C416.055 464.511 413.325 536.362 449.847 587.648C466.999 611.797 491.405 629.12 517.943 636.884C527.927 639.786 538.253 641.322 548.663 641.322C569.314 641.322 590.135 635.263 609.079 621.951C628.535 608.298 644.493 589.951 657.207 569.984C668.897 551.637 683.404 534.484 702.093 522.88C718.989 512.384 736.567 503.424 749.794 490.112C757.73 482.092 764.13 472.449 767.714 459.819C769.506 453.505 770.614 447.105 771.041 440.533C772.15 425.173 769.59 409.472 764.129 395.136L787.936 378.155L820.534 354.944L832.48 325.76C839.734 308.011 856.8 296.576 875.915 296.576C882.059 296.576 888.032 297.771 893.664 300.075C899.126 302.293 903.904 305.451 907.915 309.205L951.948 277.973ZM643.98 512.981C634.849 519.467 624.353 522.624 613.942 522.624C597.729 522.624 581.772 515.029 571.702 500.864C570.934 499.755 570.166 498.56 569.483 497.364C559.329 480.468 559.926 459.648 569.824 443.519C573.323 437.802 578.102 432.596 583.904 428.5C593.035 422.014 603.531 418.858 613.942 418.858C630.155 418.858 646.112 426.452 656.182 440.618C672.737 464 667.276 496.427 643.98 512.981Z" fill="black"/>
<g id="rightarm">
<path id="Vector_2" d="M822.497 478.08C827.874 479.957 833.677 480.299 839.223 478.933C848.354 476.715 856.29 469.973 859.874 461.269L903.394 355.029C906.807 346.581 906.124 337.536 902.284 330.027C901.09 327.637 899.554 325.419 897.761 323.456C888.972 313.899 874.465 311.083 862.774 316.8C854.241 320.896 849.889 328.149 846.39 336.512L808.332 429.44C802.273 418.176 800.908 404.523 805.43 391.723L800.567 387.968L782.134 401.109C786.742 417.749 787.767 434.987 785.121 451.371C789.729 454.955 809.014 469.717 813.964 473.471C816.61 475.52 819.51 477.056 822.497 478.08Z" fill="black"/>
</g>
<g id="hed">
<path id="Vector_3" d="M764.897 274.987C757.474 270.976 741.174 259.456 741.174 235.733C741.174 205.013 748.854 112 659.681 112C570.508 112 578.188 205.013 578.188 235.733C578.188 259.456 561.889 270.976 554.465 274.987C552.246 276.181 551.222 278.741 551.99 281.045C556.941 296.917 569.398 301.781 582.797 301.781C603.362 301.781 625.975 290.347 625.975 290.347C615.309 284.117 609.848 271.744 607.202 259.285C618.381 277.803 637.751 290.005 659.682 290.005C681.613 290.005 700.984 277.803 712.162 259.285C709.517 271.829 704.055 284.117 693.389 290.347C693.389 290.347 716.002 301.781 736.568 301.781C749.88 301.781 762.424 297.003 767.373 281.045C768.141 278.741 767.117 276.181 764.897 274.987Z" fill="black"/>
</g>
</g>
</g>
</g>
</svg>
