<svg width="1440" height="1024" viewBox="0 0 1440 1024" fill="none" xmlns="http://www.w3.org/2000/svg">




<style type="text/css">

@keyframes slide {
      0% {
        transform: translateX(0);
      }

      50% {
        transform: translateX(-1%);
      }
    }

     #rod {
      animation: slide 2s ease-in-out infinite;
    }


#head {
          animation: slide 2s ease-in-out infinite;
}

</style>







<rect width="1440" height="1024" fill="#1E1E1E"/>
<g id="Desktop - 1">
<rect width="1440" height="1024" fill="white"/>
<g id="cellomanfull">
<g id="rod">
<rect id="cellorod" x="560.964" y="381.003" width="270.321" height="42.4074" rx="15" transform="rotate(8.05449 560.964 381.003)" fill="black"/>
</g>
<g id="head">
<path id="hd" d="M781.937 207.114C819.248 207.114 849.494 176.868 849.494 139.557C849.494 102.246 819.248 72 781.937 72C744.627 72 714.38 102.246 714.38 139.557C714.38 176.868 744.627 207.114 781.937 207.114Z" fill="black"/>
</g>
<g id="bode">
<path id="bgd" d="M918.946 619.537C911.234 596.593 896.108 577.422 875.532 563.34C854.13 548.69 837.463 549.026 822.452 523.024C806.778 522.276 792.096 516.25 780.548 505.968C786.212 539.153 807.894 568.212 839.955 582.425C856.332 589.685 877.724 603.902 886.631 630.4C902.178 676.657 868.595 726.171 824.109 752.206L801.443 686.172L827.427 677.194C837.586 673.683 842.976 662.6 839.467 652.441C835.957 642.282 824.877 636.896 814.714 640.401L699.643 680.164C689.483 683.674 684.094 694.757 687.602 704.917C691.111 715.067 702.182 720.469 712.355 716.957L742.81 706.433L765.847 773.545C707.097 783.788 652.065 761.133 637.288 717.17C628.332 690.526 636.78 665.845 645.444 649.829C668.007 608.124 659.484 556.67 624.716 524.7C610.119 511.277 605.375 491.444 614.156 469.957C614.142 469.955 579.742 465.003 579.742 465.003C569.526 497.862 579.073 529.046 601.639 549.797C624.829 571.121 630.548 605.715 615.458 633.608C599.748 662.645 594.228 696.072 604.971 728.033C628.198 797.129 712.18 823.374 788.341 803.491C802.896 845.894 800.703 839.502 807.343 858.85C810.834 869.025 821.912 874.43 832.07 870.94C842.236 867.451 847.65 856.38 844.16 846.214C841.48 838.405 826.682 795.293 824.946 790.237C898.522 755.573 940.263 682.962 918.946 619.537Z" fill="black"/>
</g>
<g id="leg">
<path id="XMLID_28_" d="M969.74 529.4L892.104 489.321C866.46 509.654 866.856 509.485 863.249 511.859C872.006 518.816 932.543 537.812 955.843 607.137C975.583 665.866 955.472 727.922 913.011 773.693C913.577 794.697 930.743 811.561 951.883 811.561C973.381 811.561 990.809 794.133 990.809 772.635V563.989C990.809 549.425 982.68 536.081 969.74 529.4Z" fill="black"/>
<path id="man" d="M973.238 335.082C964.58 325.793 914.993 272.752 886.04 241.784C880.97 236.36 873.882 233.293 866.459 233.298L699.761 233.432C692.678 233.437 685.718 235.292 679.569 238.811L651.813 254.698L632.624 197.521L648.369 192.081C658.528 188.571 663.918 177.488 660.409 167.328C660.402 167.308 660.392 167.288 660.385 167.268C656.788 156.969 647.155 151.316 633.369 156.08L620.24 160.617L613.574 140.752L629.293 135.321C639.452 131.81 644.843 120.727 641.333 110.568C641.324 110.54 641.31 110.516 641.302 110.488C637.738 100.312 626.595 95.0679 616.58 98.5278L601.19 103.846L597.674 93.3727C592.557 78.1313 575.961 69.8601 560.707 74.984C560.68 74.9927 560.654 75.0066 560.624 75.017C545.357 80.1913 537.207 96.7249 542.319 111.951L545.999 122.917C542.506 124.125 533.808 127.131 530.306 128.34C520.147 131.85 514.756 142.932 518.266 153.093C521.771 163.235 532.839 168.648 543.021 165.131L558.385 159.821L565.051 179.686L549.994 184.889C540.063 188.321 534.091 198.905 537.066 208.983C539.915 218.63 549.444 224.283 558.92 222.701C559.097 222.671 559.273 222.625 559.448 222.59C561.204 222.246 562.059 221.905 563.787 221.308L551.047 261.686L527.899 335.053C522.009 353.723 535.943 373.032 555.745 373.032C565.746 373.032 565.533 371.894 619.17 340.946C625.775 360.63 630.112 373.551 637.182 394.617C625.444 392.927 593.611 388.343 581.903 386.658C571.355 385.147 561.433 392.444 559.874 403.1C559.872 403.115 559.867 403.131 559.865 403.148C558.317 413.891 565.85 423.673 576.355 425.186L651.049 435.939L685.469 538.502C690.618 553.84 707.202 562.002 722.436 556.89C737.601 551.8 745.982 535.289 740.825 519.924L715.766 445.258C757.174 451.219 769.883 453.05 796.631 456.9C797.001 462.625 799.042 468.3 802.876 473.135C812.8 485.651 830.956 487.892 843.634 478.059C843.717 477.995 843.806 477.939 843.891 477.873C983.969 366.81 968.759 378.896 970.569 377.386C983.674 366.449 984.441 347.1 973.238 335.082ZM821.45 421.148L701.895 403.935L670.765 311.174L705.164 291.326L720.492 337.002C758.843 338.558 792.729 352.401 816.863 375.109L868.267 334.353V308.11C888.432 329.741 876.484 316.925 908.962 351.764L821.45 421.148Z" fill="black"/>
</g>
</g>
</g>
</svg>
